<svg width="1280" height="209" viewBox="0 0 1280 209" fill="none" xmlns="http://www.w3.org/2000/svg">
<ellipse cx="119.22" cy="205.5" rx="1.40655" ry="1.5" transform="rotate(180 119.22 205.5)" fill="#2953A1"/>
<ellipse cx="106.838" cy="205.5" rx="1.40655" ry="1.5" transform="rotate(180 106.838 205.5)" fill="#2953A1"/>
<ellipse cx="94.4572" cy="205.5" rx="1.40655" ry="1.5" transform="rotate(180 94.4572 205.5)" fill="#2953A1"/>
<ellipse cx="82.0764" cy="205.5" rx="1.40655" ry="1.5" transform="rotate(180 82.0764 205.5)" fill="#2953A1"/>
<ellipse cx="69.6945" cy="205.5" rx="1.40655" ry="1.5" transform="rotate(180 69.6945 205.5)" fill="#2953A1"/>
<ellipse cx="57.3127" cy="205.5" rx="1.40655" ry="1.5" transform="rotate(180 57.3127 205.5)" fill="#2953A1"/>
<ellipse cx="44.9318" cy="205.5" rx="1.40655" ry="1.5" transform="rotate(180 44.9318 205.5)" fill="#2953A1"/>
<ellipse cx="32.551" cy="205.5" rx="1.40655" ry="1.5" transform="rotate(180 32.551 205.5)" fill="#2953A1"/>
<ellipse cx="20.1691" cy="205.5" rx="1.40655" ry="1.5" transform="rotate(180 20.1691 205.5)" fill="#2953A1"/>
<ellipse cx="7.78827" cy="205.5" rx="1.40655" ry="1.5" transform="rotate(180 7.78827 205.5)" fill="#2953A1"/>
<ellipse cx="119.22" cy="190.976" rx="1.40655" ry="1.5" transform="rotate(180 119.22 190.976)" fill="#2953A1"/>
<ellipse cx="106.838" cy="190.976" rx="1.40655" ry="1.5" transform="rotate(180 106.838 190.976)" fill="#2953A1"/>
<ellipse cx="94.4572" cy="190.976" rx="1.40655" ry="1.5" transform="rotate(180 94.4572 190.976)" fill="#2953A1"/>
<ellipse cx="82.0764" cy="190.976" rx="1.40655" ry="1.5" transform="rotate(180 82.0764 190.976)" fill="#2953A1"/>
<ellipse cx="69.6945" cy="190.976" rx="1.40655" ry="1.5" transform="rotate(180 69.6945 190.976)" fill="#2953A1"/>
<ellipse cx="57.3127" cy="190.976" rx="1.40655" ry="1.5" transform="rotate(180 57.3127 190.976)" fill="#2953A1"/>
<ellipse cx="44.9318" cy="190.976" rx="1.40655" ry="1.5" transform="rotate(180 44.9318 190.976)" fill="#2953A1"/>
<ellipse cx="32.551" cy="190.976" rx="1.40655" ry="1.5" transform="rotate(180 32.551 190.976)" fill="#2953A1"/>
<ellipse cx="20.1691" cy="190.976" rx="1.40655" ry="1.5" transform="rotate(180 20.1691 190.976)" fill="#2953A1"/>
<ellipse cx="7.78827" cy="190.976" rx="1.40655" ry="1.5" transform="rotate(180 7.78827 190.976)" fill="#2953A1"/>
<ellipse cx="119.22" cy="176.451" rx="1.40655" ry="1.5" transform="rotate(180 119.22 176.451)" fill="#2953A1"/>
<ellipse cx="106.838" cy="176.451" rx="1.40655" ry="1.5" transform="rotate(180 106.838 176.451)" fill="#2953A1"/>
<ellipse cx="94.4572" cy="176.451" rx="1.40655" ry="1.5" transform="rotate(180 94.4572 176.451)" fill="#2953A1"/>
<ellipse cx="82.0764" cy="176.451" rx="1.40655" ry="1.5" transform="rotate(180 82.0764 176.451)" fill="#2953A1"/>
<ellipse cx="69.6945" cy="176.451" rx="1.40655" ry="1.5" transform="rotate(180 69.6945 176.451)" fill="#2953A1"/>
<ellipse cx="57.3127" cy="176.451" rx="1.40655" ry="1.5" transform="rotate(180 57.3127 176.451)" fill="#2953A1"/>
<ellipse cx="44.9318" cy="176.451" rx="1.40655" ry="1.5" transform="rotate(180 44.9318 176.451)" fill="#2953A1"/>
<ellipse cx="32.551" cy="176.451" rx="1.40655" ry="1.5" transform="rotate(180 32.551 176.451)" fill="#2953A1"/>
<ellipse cx="20.1691" cy="176.451" rx="1.40655" ry="1.5" transform="rotate(180 20.1691 176.451)" fill="#2953A1"/>
<ellipse cx="7.78827" cy="176.451" rx="1.40655" ry="1.5" transform="rotate(180 7.78827 176.451)" fill="#2953A1"/>
<ellipse cx="119.22" cy="161.927" rx="1.40655" ry="1.5" transform="rotate(180 119.22 161.927)" fill="#2953A1"/>
<ellipse cx="106.838" cy="161.927" rx="1.40655" ry="1.5" transform="rotate(180 106.838 161.927)" fill="#2953A1"/>
<ellipse cx="94.4572" cy="161.927" rx="1.40655" ry="1.5" transform="rotate(180 94.4572 161.927)" fill="#2953A1"/>
<ellipse cx="82.0764" cy="161.927" rx="1.40655" ry="1.5" transform="rotate(180 82.0764 161.927)" fill="#2953A1"/>
<ellipse cx="69.6945" cy="161.927" rx="1.40655" ry="1.5" transform="rotate(180 69.6945 161.927)" fill="#2953A1"/>
<ellipse cx="57.3127" cy="161.927" rx="1.40655" ry="1.5" transform="rotate(180 57.3127 161.927)" fill="#2953A1"/>
<ellipse cx="44.9318" cy="161.927" rx="1.40655" ry="1.5" transform="rotate(180 44.9318 161.927)" fill="#2953A1"/>
<ellipse cx="32.551" cy="161.927" rx="1.40655" ry="1.5" transform="rotate(180 32.551 161.927)" fill="#2953A1"/>
<ellipse cx="20.1691" cy="161.927" rx="1.40655" ry="1.5" transform="rotate(180 20.1691 161.927)" fill="#2953A1"/>
<ellipse cx="7.78827" cy="161.927" rx="1.40655" ry="1.5" transform="rotate(180 7.78827 161.927)" fill="#2953A1"/>
<ellipse cx="119.22" cy="147.403" rx="1.40655" ry="1.5" transform="rotate(180 119.22 147.403)" fill="#2953A1"/>
<ellipse cx="106.838" cy="147.403" rx="1.40655" ry="1.5" transform="rotate(180 106.838 147.403)" fill="#2953A1"/>
<ellipse cx="94.4572" cy="147.403" rx="1.40655" ry="1.5" transform="rotate(180 94.4572 147.403)" fill="#2953A1"/>
<ellipse cx="82.0764" cy="147.403" rx="1.40655" ry="1.5" transform="rotate(180 82.0764 147.403)" fill="#2953A1"/>
<ellipse cx="69.6945" cy="147.403" rx="1.40655" ry="1.5" transform="rotate(180 69.6945 147.403)" fill="#2953A1"/>
<ellipse cx="57.3127" cy="147.403" rx="1.40655" ry="1.5" transform="rotate(180 57.3127 147.403)" fill="#2953A1"/>
<ellipse cx="44.9318" cy="147.403" rx="1.40655" ry="1.5" transform="rotate(180 44.9318 147.403)" fill="#2953A1"/>
<ellipse cx="32.551" cy="147.403" rx="1.40655" ry="1.5" transform="rotate(180 32.551 147.403)" fill="#2953A1"/>
<ellipse cx="20.1691" cy="147.403" rx="1.40655" ry="1.5" transform="rotate(180 20.1691 147.403)" fill="#2953A1"/>
<ellipse cx="7.78827" cy="147.403" rx="1.40655" ry="1.5" transform="rotate(180 7.78827 147.403)" fill="#2953A1"/>
<ellipse cx="119.22" cy="132.879" rx="1.40655" ry="1.5" transform="rotate(180 119.22 132.879)" fill="#2953A1"/>
<ellipse cx="106.838" cy="132.879" rx="1.40655" ry="1.5" transform="rotate(180 106.838 132.879)" fill="#2953A1"/>
<ellipse cx="94.4572" cy="132.879" rx="1.40655" ry="1.5" transform="rotate(180 94.4572 132.879)" fill="#2953A1"/>
<ellipse cx="82.0764" cy="132.879" rx="1.40655" ry="1.5" transform="rotate(180 82.0764 132.879)" fill="#2953A1"/>
<ellipse cx="69.6945" cy="132.879" rx="1.40655" ry="1.5" transform="rotate(180 69.6945 132.879)" fill="#2953A1"/>
<ellipse cx="57.3127" cy="132.879" rx="1.40655" ry="1.5" transform="rotate(180 57.3127 132.879)" fill="#2953A1"/>
<ellipse cx="44.9318" cy="132.879" rx="1.40655" ry="1.5" transform="rotate(180 44.9318 132.879)" fill="#2953A1"/>
<ellipse cx="32.551" cy="132.879" rx="1.40655" ry="1.5" transform="rotate(180 32.551 132.879)" fill="#2953A1"/>
<ellipse cx="20.1691" cy="132.879" rx="1.40655" ry="1.5" transform="rotate(180 20.1691 132.879)" fill="#2953A1"/>
<ellipse cx="7.78827" cy="132.879" rx="1.40655" ry="1.5" transform="rotate(180 7.78827 132.879)" fill="#2953A1"/>
<ellipse cx="119.22" cy="118.354" rx="1.40655" ry="1.5" transform="rotate(180 119.22 118.354)" fill="#2953A1"/>
<ellipse cx="106.838" cy="118.354" rx="1.40655" ry="1.5" transform="rotate(180 106.838 118.354)" fill="#2953A1"/>
<ellipse cx="94.4572" cy="118.354" rx="1.40655" ry="1.5" transform="rotate(180 94.4572 118.354)" fill="#2953A1"/>
<ellipse cx="82.0764" cy="118.354" rx="1.40655" ry="1.5" transform="rotate(180 82.0764 118.354)" fill="#2953A1"/>
<ellipse cx="69.6945" cy="118.354" rx="1.40655" ry="1.5" transform="rotate(180 69.6945 118.354)" fill="#2953A1"/>
<ellipse cx="57.3127" cy="118.354" rx="1.40655" ry="1.5" transform="rotate(180 57.3127 118.354)" fill="#2953A1"/>
<ellipse cx="44.9318" cy="118.354" rx="1.40655" ry="1.5" transform="rotate(180 44.9318 118.354)" fill="#2953A1"/>
<ellipse cx="32.551" cy="118.354" rx="1.40655" ry="1.5" transform="rotate(180 32.551 118.354)" fill="#2953A1"/>
<ellipse cx="20.1691" cy="118.354" rx="1.40655" ry="1.5" transform="rotate(180 20.1691 118.354)" fill="#2953A1"/>
<ellipse cx="7.78827" cy="118.354" rx="1.40655" ry="1.5" transform="rotate(180 7.78827 118.354)" fill="#2953A1"/>
<ellipse cx="119.22" cy="103.83" rx="1.40655" ry="1.5" transform="rotate(180 119.22 103.83)" fill="#2953A1"/>
<ellipse cx="106.838" cy="103.83" rx="1.40655" ry="1.5" transform="rotate(180 106.838 103.83)" fill="#2953A1"/>
<ellipse cx="94.4572" cy="103.83" rx="1.40655" ry="1.5" transform="rotate(180 94.4572 103.83)" fill="#2953A1"/>
<ellipse cx="82.0764" cy="103.83" rx="1.40655" ry="1.5" transform="rotate(180 82.0764 103.83)" fill="#2953A1"/>
<ellipse cx="69.6945" cy="103.83" rx="1.40655" ry="1.5" transform="rotate(180 69.6945 103.83)" fill="#2953A1"/>
<ellipse cx="57.3127" cy="103.83" rx="1.40655" ry="1.5" transform="rotate(180 57.3127 103.83)" fill="#2953A1"/>
<ellipse cx="44.9318" cy="103.83" rx="1.40655" ry="1.5" transform="rotate(180 44.9318 103.83)" fill="#2953A1"/>
<ellipse cx="32.551" cy="103.83" rx="1.40655" ry="1.5" transform="rotate(180 32.551 103.83)" fill="#2953A1"/>
<ellipse cx="20.1691" cy="103.83" rx="1.40655" ry="1.5" transform="rotate(180 20.1691 103.83)" fill="#2953A1"/>
<ellipse cx="7.78827" cy="103.83" rx="1.40655" ry="1.5" transform="rotate(180 7.78827 103.83)" fill="#2953A1"/>
<ellipse cx="119.22" cy="89.3058" rx="1.40655" ry="1.5" transform="rotate(180 119.22 89.3058)" fill="#2953A1"/>
<ellipse cx="106.838" cy="89.3058" rx="1.40655" ry="1.5" transform="rotate(180 106.838 89.3058)" fill="#2953A1"/>
<ellipse cx="94.4572" cy="89.3058" rx="1.40655" ry="1.5" transform="rotate(180 94.4572 89.3058)" fill="#2953A1"/>
<ellipse cx="82.0764" cy="89.3058" rx="1.40655" ry="1.5" transform="rotate(180 82.0764 89.3058)" fill="#2953A1"/>
<ellipse cx="69.6945" cy="89.3058" rx="1.40655" ry="1.5" transform="rotate(180 69.6945 89.3058)" fill="#2953A1"/>
<ellipse cx="57.3127" cy="89.3058" rx="1.40655" ry="1.5" transform="rotate(180 57.3127 89.3058)" fill="#2953A1"/>
<ellipse cx="44.9318" cy="89.3058" rx="1.40655" ry="1.5" transform="rotate(180 44.9318 89.3058)" fill="#2953A1"/>
<ellipse cx="32.551" cy="89.3058" rx="1.40655" ry="1.5" transform="rotate(180 32.551 89.3058)" fill="#2953A1"/>
<ellipse cx="20.1691" cy="89.3058" rx="1.40655" ry="1.5" transform="rotate(180 20.1691 89.3058)" fill="#2953A1"/>
<ellipse cx="7.78827" cy="89.3058" rx="1.40655" ry="1.5" transform="rotate(180 7.78827 89.3058)" fill="#2953A1"/>
<ellipse cx="119.22" cy="74.7816" rx="1.40655" ry="1.5" transform="rotate(180 119.22 74.7816)" fill="#2953A1"/>
<ellipse cx="106.838" cy="74.7816" rx="1.40655" ry="1.5" transform="rotate(180 106.838 74.7816)" fill="#2953A1"/>
<ellipse cx="94.4572" cy="74.7816" rx="1.40655" ry="1.5" transform="rotate(180 94.4572 74.7816)" fill="#2953A1"/>
<ellipse cx="82.0764" cy="74.7816" rx="1.40655" ry="1.5" transform="rotate(180 82.0764 74.7816)" fill="#2953A1"/>
<ellipse cx="69.6945" cy="74.7816" rx="1.40655" ry="1.5" transform="rotate(180 69.6945 74.7816)" fill="#2953A1"/>
<ellipse cx="57.3127" cy="74.7816" rx="1.40655" ry="1.5" transform="rotate(180 57.3127 74.7816)" fill="#2953A1"/>
<ellipse cx="44.9318" cy="74.7816" rx="1.40655" ry="1.5" transform="rotate(180 44.9318 74.7816)" fill="#2953A1"/>
<ellipse cx="32.551" cy="74.7816" rx="1.40655" ry="1.5" transform="rotate(180 32.551 74.7816)" fill="#2953A1"/>
<ellipse cx="20.1691" cy="74.7816" rx="1.40655" ry="1.5" transform="rotate(180 20.1691 74.7816)" fill="#2953A1"/>
<ellipse cx="7.78827" cy="74.7816" rx="1.40655" ry="1.5" transform="rotate(180 7.78827 74.7816)" fill="#2953A1"/>
<path d="M1281 209L632 209C625.373 209 620 203.627 620 197L620 5.77865e-05L1281 0L1281 209Z" fill="#F1F3F6"/>
</svg>
