<svg width="1280" height="300" viewBox="0 0 1280 300" fill="none" xmlns="http://www.w3.org/2000/svg">
<rect x="-6" width="1291" height="300" fill="#F1F3F6"/>
<ellipse cx="115.415" cy="151.5" rx="1.41458" ry="1.5" fill="#2953A1"/>
<ellipse cx="127.867" cy="151.5" rx="1.41458" ry="1.5" fill="#2953A1"/>
<ellipse cx="140.319" cy="151.5" rx="1.41458" ry="1.5" fill="#2953A1"/>
<ellipse cx="152.771" cy="151.5" rx="1.41458" ry="1.5" fill="#2953A1"/>
<ellipse cx="165.222" cy="151.5" rx="1.41458" ry="1.5" fill="#2953A1"/>
<ellipse cx="177.675" cy="151.5" rx="1.41458" ry="1.5" fill="#2953A1"/>
<ellipse cx="190.126" cy="151.5" rx="1.41458" ry="1.5" fill="#2953A1"/>
<ellipse cx="202.579" cy="151.5" rx="1.41458" ry="1.5" fill="#2953A1"/>
<ellipse cx="215.03" cy="151.5" rx="1.41458" ry="1.5" fill="#2953A1"/>
<ellipse cx="227.483" cy="151.5" rx="1.41458" ry="1.5" fill="#2953A1"/>
<ellipse cx="239.935" cy="151.5" rx="1.41458" ry="1.5" fill="#2953A1"/>
<ellipse cx="115.415" cy="166.024" rx="1.41458" ry="1.5" fill="#2953A1"/>
<ellipse cx="127.867" cy="166.024" rx="1.41458" ry="1.5" fill="#2953A1"/>
<ellipse cx="140.319" cy="166.024" rx="1.41458" ry="1.5" fill="#2953A1"/>
<ellipse cx="152.771" cy="166.024" rx="1.41458" ry="1.5" fill="#2953A1"/>
<ellipse cx="165.222" cy="166.024" rx="1.41458" ry="1.5" fill="#2953A1"/>
<ellipse cx="177.675" cy="166.024" rx="1.41458" ry="1.5" fill="#2953A1"/>
<ellipse cx="190.126" cy="166.024" rx="1.41458" ry="1.5" fill="#2953A1"/>
<ellipse cx="202.579" cy="166.024" rx="1.41458" ry="1.5" fill="#2953A1"/>
<ellipse cx="215.03" cy="166.024" rx="1.41458" ry="1.5" fill="#2953A1"/>
<ellipse cx="227.483" cy="166.024" rx="1.41458" ry="1.5" fill="#2953A1"/>
<ellipse cx="239.935" cy="166.024" rx="1.41458" ry="1.5" fill="#2953A1"/>
<ellipse cx="115.415" cy="180.549" rx="1.41458" ry="1.5" fill="#2953A1"/>
<ellipse cx="127.867" cy="180.549" rx="1.41458" ry="1.5" fill="#2953A1"/>
<ellipse cx="140.319" cy="180.549" rx="1.41458" ry="1.5" fill="#2953A1"/>
<ellipse cx="152.771" cy="180.549" rx="1.41458" ry="1.5" fill="#2953A1"/>
<ellipse cx="165.222" cy="180.549" rx="1.41458" ry="1.5" fill="#2953A1"/>
<ellipse cx="177.675" cy="180.549" rx="1.41458" ry="1.5" fill="#2953A1"/>
<ellipse cx="190.126" cy="180.549" rx="1.41458" ry="1.5" fill="#2953A1"/>
<ellipse cx="202.579" cy="180.549" rx="1.41458" ry="1.5" fill="#2953A1"/>
<ellipse cx="215.03" cy="180.549" rx="1.41458" ry="1.5" fill="#2953A1"/>
<ellipse cx="227.483" cy="180.549" rx="1.41458" ry="1.5" fill="#2953A1"/>
<ellipse cx="239.935" cy="180.549" rx="1.41458" ry="1.5" fill="#2953A1"/>
<ellipse cx="115.415" cy="195.073" rx="1.41458" ry="1.5" fill="#2953A1"/>
<ellipse cx="127.867" cy="195.073" rx="1.41458" ry="1.5" fill="#2953A1"/>
<ellipse cx="140.319" cy="195.073" rx="1.41458" ry="1.5" fill="#2953A1"/>
<ellipse cx="152.771" cy="195.073" rx="1.41458" ry="1.5" fill="#2953A1"/>
<ellipse cx="165.222" cy="195.073" rx="1.41458" ry="1.5" fill="#2953A1"/>
<ellipse cx="177.675" cy="195.073" rx="1.41458" ry="1.5" fill="#2953A1"/>
<ellipse cx="190.126" cy="195.073" rx="1.41458" ry="1.5" fill="#2953A1"/>
<ellipse cx="202.579" cy="195.073" rx="1.41458" ry="1.5" fill="#2953A1"/>
<ellipse cx="215.03" cy="195.073" rx="1.41458" ry="1.5" fill="#2953A1"/>
<ellipse cx="227.483" cy="195.073" rx="1.41458" ry="1.5" fill="#2953A1"/>
<ellipse cx="239.935" cy="195.073" rx="1.41458" ry="1.5" fill="#2953A1"/>
<ellipse cx="115.415" cy="209.597" rx="1.41458" ry="1.5" fill="#2953A1"/>
<ellipse cx="127.867" cy="209.597" rx="1.41458" ry="1.5" fill="#2953A1"/>
<ellipse cx="140.319" cy="209.597" rx="1.41458" ry="1.5" fill="#2953A1"/>
<ellipse cx="152.771" cy="209.597" rx="1.41458" ry="1.5" fill="#2953A1"/>
<ellipse cx="165.222" cy="209.597" rx="1.41458" ry="1.5" fill="#2953A1"/>
<ellipse cx="177.675" cy="209.597" rx="1.41458" ry="1.5" fill="#2953A1"/>
<ellipse cx="190.126" cy="209.597" rx="1.41458" ry="1.5" fill="#2953A1"/>
<ellipse cx="202.579" cy="209.597" rx="1.41458" ry="1.5" fill="#2953A1"/>
<ellipse cx="215.03" cy="209.597" rx="1.41458" ry="1.5" fill="#2953A1"/>
<ellipse cx="227.483" cy="209.597" rx="1.41458" ry="1.5" fill="#2953A1"/>
<ellipse cx="239.935" cy="209.597" rx="1.41458" ry="1.5" fill="#2953A1"/>
<ellipse cx="115.415" cy="224.121" rx="1.41458" ry="1.5" fill="#2953A1"/>
<ellipse cx="127.867" cy="224.121" rx="1.41458" ry="1.5" fill="#2953A1"/>
<ellipse cx="140.319" cy="224.121" rx="1.41458" ry="1.5" fill="#2953A1"/>
<ellipse cx="152.771" cy="224.121" rx="1.41458" ry="1.5" fill="#2953A1"/>
<ellipse cx="165.222" cy="224.121" rx="1.41458" ry="1.5" fill="#2953A1"/>
<ellipse cx="177.675" cy="224.121" rx="1.41458" ry="1.5" fill="#2953A1"/>
<ellipse cx="190.126" cy="224.121" rx="1.41458" ry="1.5" fill="#2953A1"/>
<ellipse cx="202.579" cy="224.121" rx="1.41458" ry="1.5" fill="#2953A1"/>
<ellipse cx="215.03" cy="224.121" rx="1.41458" ry="1.5" fill="#2953A1"/>
<ellipse cx="227.483" cy="224.121" rx="1.41458" ry="1.5" fill="#2953A1"/>
<ellipse cx="239.935" cy="224.121" rx="1.41458" ry="1.5" fill="#2953A1"/>
<ellipse cx="115.415" cy="238.646" rx="1.41458" ry="1.5" fill="#2953A1"/>
<ellipse cx="127.867" cy="238.646" rx="1.41458" ry="1.5" fill="#2953A1"/>
<ellipse cx="140.319" cy="238.646" rx="1.41458" ry="1.5" fill="#2953A1"/>
<ellipse cx="152.771" cy="238.646" rx="1.41458" ry="1.5" fill="#2953A1"/>
<ellipse cx="165.222" cy="238.646" rx="1.41458" ry="1.5" fill="#2953A1"/>
<ellipse cx="177.675" cy="238.646" rx="1.41458" ry="1.5" fill="#2953A1"/>
<ellipse cx="190.126" cy="238.646" rx="1.41458" ry="1.5" fill="#2953A1"/>
<ellipse cx="202.579" cy="238.646" rx="1.41458" ry="1.5" fill="#2953A1"/>
<ellipse cx="215.03" cy="238.646" rx="1.41458" ry="1.5" fill="#2953A1"/>
<ellipse cx="227.483" cy="238.646" rx="1.41458" ry="1.5" fill="#2953A1"/>
<ellipse cx="239.935" cy="238.646" rx="1.41458" ry="1.5" fill="#2953A1"/>
<ellipse cx="115.415" cy="253.17" rx="1.41458" ry="1.5" fill="#2953A1"/>
<ellipse cx="127.867" cy="253.17" rx="1.41458" ry="1.5" fill="#2953A1"/>
<ellipse cx="140.319" cy="253.17" rx="1.41458" ry="1.5" fill="#2953A1"/>
<ellipse cx="152.771" cy="253.17" rx="1.41458" ry="1.5" fill="#2953A1"/>
<ellipse cx="165.222" cy="253.17" rx="1.41458" ry="1.5" fill="#2953A1"/>
<ellipse cx="177.675" cy="253.17" rx="1.41458" ry="1.5" fill="#2953A1"/>
<ellipse cx="190.126" cy="253.17" rx="1.41458" ry="1.5" fill="#2953A1"/>
<ellipse cx="202.579" cy="253.17" rx="1.41458" ry="1.5" fill="#2953A1"/>
<ellipse cx="215.03" cy="253.17" rx="1.41458" ry="1.5" fill="#2953A1"/>
<ellipse cx="227.483" cy="253.17" rx="1.41458" ry="1.5" fill="#2953A1"/>
<ellipse cx="239.935" cy="253.17" rx="1.41458" ry="1.5" fill="#2953A1"/>
<ellipse cx="115.415" cy="267.694" rx="1.41458" ry="1.5" fill="#2953A1"/>
<ellipse cx="127.867" cy="267.694" rx="1.41458" ry="1.5" fill="#2953A1"/>
<ellipse cx="140.319" cy="267.694" rx="1.41458" ry="1.5" fill="#2953A1"/>
<ellipse cx="152.771" cy="267.694" rx="1.41458" ry="1.5" fill="#2953A1"/>
<ellipse cx="165.222" cy="267.694" rx="1.41458" ry="1.5" fill="#2953A1"/>
<ellipse cx="177.675" cy="267.694" rx="1.41458" ry="1.5" fill="#2953A1"/>
<ellipse cx="190.126" cy="267.694" rx="1.41458" ry="1.5" fill="#2953A1"/>
<ellipse cx="202.579" cy="267.694" rx="1.41458" ry="1.5" fill="#2953A1"/>
<ellipse cx="215.03" cy="267.694" rx="1.41458" ry="1.5" fill="#2953A1"/>
<ellipse cx="227.483" cy="267.694" rx="1.41458" ry="1.5" fill="#2953A1"/>
<ellipse cx="239.935" cy="267.694" rx="1.41458" ry="1.5" fill="#2953A1"/>
<ellipse cx="115.415" cy="282.219" rx="1.41458" ry="1.5" fill="#2953A1"/>
<ellipse cx="127.867" cy="282.219" rx="1.41458" ry="1.5" fill="#2953A1"/>
<ellipse cx="140.319" cy="282.219" rx="1.41458" ry="1.5" fill="#2953A1"/>
<ellipse cx="152.771" cy="282.219" rx="1.41458" ry="1.5" fill="#2953A1"/>
<ellipse cx="165.222" cy="282.219" rx="1.41458" ry="1.5" fill="#2953A1"/>
<ellipse cx="177.675" cy="282.219" rx="1.41458" ry="1.5" fill="#2953A1"/>
<ellipse cx="190.126" cy="282.219" rx="1.41458" ry="1.5" fill="#2953A1"/>
<ellipse cx="202.579" cy="282.219" rx="1.41458" ry="1.5" fill="#2953A1"/>
<ellipse cx="215.03" cy="282.219" rx="1.41458" ry="1.5" fill="#2953A1"/>
<ellipse cx="227.483" cy="282.219" rx="1.41458" ry="1.5" fill="#2953A1"/>
<ellipse cx="239.935" cy="282.219" rx="1.41458" ry="1.5" fill="#2953A1"/>
</svg>
