<svg width="1278" height="208" viewBox="0 0 1278 208" fill="none" xmlns="http://www.w3.org/2000/svg">
<ellipse rx="1.39982" ry="1.49282" transform="matrix(-1 0 0 1 1276.52 74.4237)" fill="#2953A1"/>
<ellipse rx="1.39982" ry="1.49282" transform="matrix(-1 0 0 1 1264.2 74.4237)" fill="#2953A1"/>
<ellipse rx="1.39982" ry="1.49282" transform="matrix(-1 0 0 1 1251.88 74.4237)" fill="#2953A1"/>
<ellipse rx="1.39982" ry="1.49282" transform="matrix(-1 0 0 1 1239.56 74.4237)" fill="#2953A1"/>
<ellipse rx="1.39982" ry="1.49282" transform="matrix(-1 0 0 1 1227.23 74.4237)" fill="#2953A1"/>
<ellipse rx="1.39982" ry="1.49282" transform="matrix(-1 0 0 1 1214.91 74.4237)" fill="#2953A1"/>
<ellipse rx="1.39982" ry="1.49282" transform="matrix(-1 0 0 1 1202.59 74.4237)" fill="#2953A1"/>
<ellipse rx="1.39982" ry="1.49282" transform="matrix(-1 0 0 1 1190.27 74.4237)" fill="#2953A1"/>
<ellipse rx="1.39982" ry="1.49282" transform="matrix(-1 0 0 1 1177.94 74.4237)" fill="#2953A1"/>
<ellipse rx="1.39982" ry="1.49282" transform="matrix(-1 0 0 1 1165.62 74.4237)" fill="#2953A1"/>
<ellipse rx="1.39982" ry="1.49282" transform="matrix(-1 0 0 1 1153.3 74.4237)" fill="#2953A1"/>
<ellipse rx="1.39982" ry="1.49282" transform="matrix(-1 0 0 1 1276.52 88.8784)" fill="#2953A1"/>
<ellipse rx="1.39982" ry="1.49282" transform="matrix(-1 0 0 1 1264.2 88.8784)" fill="#2953A1"/>
<ellipse rx="1.39982" ry="1.49282" transform="matrix(-1 0 0 1 1251.88 88.8784)" fill="#2953A1"/>
<ellipse rx="1.39982" ry="1.49282" transform="matrix(-1 0 0 1 1239.56 88.8784)" fill="#2953A1"/>
<ellipse rx="1.39982" ry="1.49282" transform="matrix(-1 0 0 1 1227.23 88.8784)" fill="#2953A1"/>
<ellipse rx="1.39982" ry="1.49282" transform="matrix(-1 0 0 1 1214.91 88.8784)" fill="#2953A1"/>
<ellipse rx="1.39982" ry="1.49282" transform="matrix(-1 0 0 1 1202.59 88.8784)" fill="#2953A1"/>
<ellipse rx="1.39982" ry="1.49282" transform="matrix(-1 0 0 1 1190.27 88.8784)" fill="#2953A1"/>
<ellipse rx="1.39982" ry="1.49282" transform="matrix(-1 0 0 1 1177.94 88.8784)" fill="#2953A1"/>
<ellipse rx="1.39982" ry="1.49282" transform="matrix(-1 0 0 1 1165.62 88.8784)" fill="#2953A1"/>
<ellipse rx="1.39982" ry="1.49282" transform="matrix(-1 0 0 1 1153.3 88.8784)" fill="#2953A1"/>
<ellipse rx="1.39982" ry="1.49282" transform="matrix(-1 0 0 1 1276.52 103.333)" fill="#2953A1"/>
<ellipse rx="1.39982" ry="1.49282" transform="matrix(-1 0 0 1 1264.2 103.333)" fill="#2953A1"/>
<ellipse rx="1.39982" ry="1.49282" transform="matrix(-1 0 0 1 1251.88 103.333)" fill="#2953A1"/>
<ellipse rx="1.39982" ry="1.49282" transform="matrix(-1 0 0 1 1239.56 103.333)" fill="#2953A1"/>
<ellipse rx="1.39982" ry="1.49282" transform="matrix(-1 0 0 1 1227.23 103.333)" fill="#2953A1"/>
<ellipse rx="1.39982" ry="1.49282" transform="matrix(-1 0 0 1 1214.91 103.333)" fill="#2953A1"/>
<ellipse rx="1.39982" ry="1.49282" transform="matrix(-1 0 0 1 1202.59 103.333)" fill="#2953A1"/>
<ellipse rx="1.39982" ry="1.49282" transform="matrix(-1 0 0 1 1190.27 103.333)" fill="#2953A1"/>
<ellipse rx="1.39982" ry="1.49282" transform="matrix(-1 0 0 1 1177.94 103.333)" fill="#2953A1"/>
<ellipse rx="1.39982" ry="1.49282" transform="matrix(-1 0 0 1 1165.62 103.333)" fill="#2953A1"/>
<ellipse rx="1.39982" ry="1.49282" transform="matrix(-1 0 0 1 1153.3 103.333)" fill="#2953A1"/>
<ellipse rx="1.39982" ry="1.49282" transform="matrix(-1 0 0 1 1276.52 117.788)" fill="#2953A1"/>
<ellipse rx="1.39982" ry="1.49282" transform="matrix(-1 0 0 1 1264.2 117.788)" fill="#2953A1"/>
<ellipse rx="1.39982" ry="1.49282" transform="matrix(-1 0 0 1 1251.88 117.788)" fill="#2953A1"/>
<ellipse rx="1.39982" ry="1.49282" transform="matrix(-1 0 0 1 1239.56 117.788)" fill="#2953A1"/>
<ellipse rx="1.39982" ry="1.49282" transform="matrix(-1 0 0 1 1227.23 117.788)" fill="#2953A1"/>
<ellipse rx="1.39982" ry="1.49282" transform="matrix(-1 0 0 1 1214.91 117.788)" fill="#2953A1"/>
<ellipse rx="1.39982" ry="1.49282" transform="matrix(-1 0 0 1 1202.59 117.788)" fill="#2953A1"/>
<ellipse rx="1.39982" ry="1.49282" transform="matrix(-1 0 0 1 1190.27 117.788)" fill="#2953A1"/>
<ellipse rx="1.39982" ry="1.49282" transform="matrix(-1 0 0 1 1177.94 117.788)" fill="#2953A1"/>
<ellipse rx="1.39982" ry="1.49282" transform="matrix(-1 0 0 1 1165.62 117.788)" fill="#2953A1"/>
<ellipse rx="1.39982" ry="1.49282" transform="matrix(-1 0 0 1 1153.3 117.788)" fill="#2953A1"/>
<ellipse rx="1.39982" ry="1.49282" transform="matrix(-1 0 0 1 1276.52 132.243)" fill="#2953A1"/>
<ellipse rx="1.39982" ry="1.49282" transform="matrix(-1 0 0 1 1264.2 132.243)" fill="#2953A1"/>
<ellipse rx="1.39982" ry="1.49282" transform="matrix(-1 0 0 1 1251.88 132.243)" fill="#2953A1"/>
<ellipse rx="1.39982" ry="1.49282" transform="matrix(-1 0 0 1 1239.56 132.243)" fill="#2953A1"/>
<ellipse rx="1.39982" ry="1.49282" transform="matrix(-1 0 0 1 1227.23 132.243)" fill="#2953A1"/>
<ellipse rx="1.39982" ry="1.49282" transform="matrix(-1 0 0 1 1214.91 132.243)" fill="#2953A1"/>
<ellipse rx="1.39982" ry="1.49282" transform="matrix(-1 0 0 1 1202.59 132.243)" fill="#2953A1"/>
<ellipse rx="1.39982" ry="1.49282" transform="matrix(-1 0 0 1 1190.27 132.243)" fill="#2953A1"/>
<ellipse rx="1.39982" ry="1.49282" transform="matrix(-1 0 0 1 1177.94 132.243)" fill="#2953A1"/>
<ellipse rx="1.39982" ry="1.49282" transform="matrix(-1 0 0 1 1165.62 132.243)" fill="#2953A1"/>
<ellipse rx="1.39982" ry="1.49282" transform="matrix(-1 0 0 1 1153.3 132.243)" fill="#2953A1"/>
<ellipse rx="1.39982" ry="1.49282" transform="matrix(-1 0 0 1 1276.52 146.698)" fill="#2953A1"/>
<ellipse rx="1.39982" ry="1.49282" transform="matrix(-1 0 0 1 1264.2 146.698)" fill="#2953A1"/>
<ellipse rx="1.39982" ry="1.49282" transform="matrix(-1 0 0 1 1251.88 146.698)" fill="#2953A1"/>
<ellipse rx="1.39982" ry="1.49282" transform="matrix(-1 0 0 1 1239.56 146.698)" fill="#2953A1"/>
<ellipse rx="1.39982" ry="1.49282" transform="matrix(-1 0 0 1 1227.23 146.698)" fill="#2953A1"/>
<ellipse rx="1.39982" ry="1.49282" transform="matrix(-1 0 0 1 1214.91 146.698)" fill="#2953A1"/>
<ellipse rx="1.39982" ry="1.49282" transform="matrix(-1 0 0 1 1202.59 146.698)" fill="#2953A1"/>
<ellipse rx="1.39982" ry="1.49282" transform="matrix(-1 0 0 1 1190.27 146.698)" fill="#2953A1"/>
<ellipse rx="1.39982" ry="1.49282" transform="matrix(-1 0 0 1 1177.94 146.698)" fill="#2953A1"/>
<ellipse rx="1.39982" ry="1.49282" transform="matrix(-1 0 0 1 1165.62 146.698)" fill="#2953A1"/>
<ellipse rx="1.39982" ry="1.49282" transform="matrix(-1 0 0 1 1153.3 146.698)" fill="#2953A1"/>
<ellipse rx="1.39982" ry="1.49282" transform="matrix(-1 0 0 1 1276.52 161.152)" fill="#2953A1"/>
<ellipse rx="1.39982" ry="1.49282" transform="matrix(-1 0 0 1 1264.2 161.152)" fill="#2953A1"/>
<ellipse rx="1.39982" ry="1.49282" transform="matrix(-1 0 0 1 1251.88 161.152)" fill="#2953A1"/>
<ellipse rx="1.39982" ry="1.49282" transform="matrix(-1 0 0 1 1239.56 161.152)" fill="#2953A1"/>
<ellipse rx="1.39982" ry="1.49282" transform="matrix(-1 0 0 1 1227.23 161.152)" fill="#2953A1"/>
<ellipse rx="1.39982" ry="1.49282" transform="matrix(-1 0 0 1 1214.91 161.152)" fill="#2953A1"/>
<ellipse rx="1.39982" ry="1.49282" transform="matrix(-1 0 0 1 1202.59 161.152)" fill="#2953A1"/>
<ellipse rx="1.39982" ry="1.49282" transform="matrix(-1 0 0 1 1190.27 161.152)" fill="#2953A1"/>
<ellipse rx="1.39982" ry="1.49282" transform="matrix(-1 0 0 1 1177.94 161.152)" fill="#2953A1"/>
<ellipse rx="1.39982" ry="1.49282" transform="matrix(-1 0 0 1 1165.62 161.152)" fill="#2953A1"/>
<ellipse rx="1.39982" ry="1.49282" transform="matrix(-1 0 0 1 1153.3 161.152)" fill="#2953A1"/>
<ellipse rx="1.39982" ry="1.49282" transform="matrix(-1 0 0 1 1276.52 175.607)" fill="#2953A1"/>
<ellipse rx="1.39982" ry="1.49282" transform="matrix(-1 0 0 1 1264.2 175.607)" fill="#2953A1"/>
<ellipse rx="1.39982" ry="1.49282" transform="matrix(-1 0 0 1 1251.88 175.607)" fill="#2953A1"/>
<ellipse rx="1.39982" ry="1.49282" transform="matrix(-1 0 0 1 1239.56 175.607)" fill="#2953A1"/>
<ellipse rx="1.39982" ry="1.49282" transform="matrix(-1 0 0 1 1227.23 175.607)" fill="#2953A1"/>
<ellipse rx="1.39982" ry="1.49282" transform="matrix(-1 0 0 1 1214.91 175.607)" fill="#2953A1"/>
<ellipse rx="1.39982" ry="1.49282" transform="matrix(-1 0 0 1 1202.59 175.607)" fill="#2953A1"/>
<ellipse rx="1.39982" ry="1.49282" transform="matrix(-1 0 0 1 1190.27 175.607)" fill="#2953A1"/>
<ellipse rx="1.39982" ry="1.49282" transform="matrix(-1 0 0 1 1177.94 175.607)" fill="#2953A1"/>
<ellipse rx="1.39982" ry="1.49282" transform="matrix(-1 0 0 1 1165.62 175.607)" fill="#2953A1"/>
<ellipse rx="1.39982" ry="1.49282" transform="matrix(-1 0 0 1 1153.3 175.607)" fill="#2953A1"/>
<ellipse rx="1.39982" ry="1.49282" transform="matrix(-1 0 0 1 1276.52 190.062)" fill="#2953A1"/>
<ellipse rx="1.39982" ry="1.49282" transform="matrix(-1 0 0 1 1264.2 190.062)" fill="#2953A1"/>
<ellipse rx="1.39982" ry="1.49282" transform="matrix(-1 0 0 1 1251.88 190.062)" fill="#2953A1"/>
<ellipse rx="1.39982" ry="1.49282" transform="matrix(-1 0 0 1 1239.56 190.062)" fill="#2953A1"/>
<ellipse rx="1.39982" ry="1.49282" transform="matrix(-1 0 0 1 1227.23 190.062)" fill="#2953A1"/>
<ellipse rx="1.39982" ry="1.49282" transform="matrix(-1 0 0 1 1214.91 190.062)" fill="#2953A1"/>
<ellipse rx="1.39982" ry="1.49282" transform="matrix(-1 0 0 1 1202.59 190.062)" fill="#2953A1"/>
<ellipse rx="1.39982" ry="1.49282" transform="matrix(-1 0 0 1 1190.27 190.062)" fill="#2953A1"/>
<ellipse rx="1.39982" ry="1.49282" transform="matrix(-1 0 0 1 1177.94 190.062)" fill="#2953A1"/>
<ellipse rx="1.39982" ry="1.49282" transform="matrix(-1 0 0 1 1165.62 190.062)" fill="#2953A1"/>
<ellipse rx="1.39982" ry="1.49282" transform="matrix(-1 0 0 1 1153.3 190.062)" fill="#2953A1"/>
<ellipse rx="1.39982" ry="1.49282" transform="matrix(-1 0 0 1 1276.52 204.517)" fill="#2953A1"/>
<ellipse rx="1.39982" ry="1.49282" transform="matrix(-1 0 0 1 1264.2 204.517)" fill="#2953A1"/>
<ellipse rx="1.39982" ry="1.49282" transform="matrix(-1 0 0 1 1251.88 204.517)" fill="#2953A1"/>
<ellipse rx="1.39982" ry="1.49282" transform="matrix(-1 0 0 1 1239.56 204.517)" fill="#2953A1"/>
<ellipse rx="1.39982" ry="1.49282" transform="matrix(-1 0 0 1 1227.23 204.517)" fill="#2953A1"/>
<ellipse rx="1.39982" ry="1.49282" transform="matrix(-1 0 0 1 1214.91 204.517)" fill="#2953A1"/>
<ellipse rx="1.39982" ry="1.49282" transform="matrix(-1 0 0 1 1202.59 204.517)" fill="#2953A1"/>
<ellipse rx="1.39982" ry="1.49282" transform="matrix(-1 0 0 1 1190.27 204.517)" fill="#2953A1"/>
<ellipse rx="1.39982" ry="1.49282" transform="matrix(-1 0 0 1 1177.94 204.517)" fill="#2953A1"/>
<ellipse rx="1.39982" ry="1.49282" transform="matrix(-1 0 0 1 1165.62 204.517)" fill="#2953A1"/>
<ellipse rx="1.39982" ry="1.49282" transform="matrix(-1 0 0 1 1153.3 204.517)" fill="#2953A1"/>
<path d="M655 0L9 0C2.37256 0 -3 5.37258 -3 12V208L655 208V0Z" fill="#F1F3F6"/>
</svg>
