<svg width="18" height="20" viewBox="0 0 18 20" fill="none" xmlns="http://www.w3.org/2000/svg" class="w-full"><path fill-rule="evenodd" clip-rule="evenodd" d="M0.996582 8.31776C0.996582 3.71789 4.84046 0 9.49003 0C14.1527 0 17.9966 3.71789 17.9966 8.31776C17.9966 10.6357 17.1536 12.7876 15.7661 14.6116C14.2354 16.6235 12.3487 18.3765 10.2251 19.7524C9.73909 20.0704 9.30046 20.0944 8.76703 19.7524C6.63132 18.3765 4.74467 16.6235 3.22708 14.6116C1.83857 12.7876 0.996582 10.6357 0.996582 8.31776ZM6.69081 8.57675C6.69081 10.1177 7.94824 11.3297 9.49003 11.3297C11.0328 11.3297 12.3024 10.1177 12.3024 8.57675C12.3024 7.0478 11.0328 5.77683 9.49003 5.77683C7.94824 5.77683 6.69081 7.0478 6.69081 8.57675Z" fill="#1E272E"></path></svg>