<svg width="21" height="18" viewBox="0 0 21 18" fill="none" xmlns="http://www.w3.org/2000/svg" class="w-full"><path fill-rule="evenodd" clip-rule="evenodd" d="M15.4361 0C16.7771 0 18.0671 0.53 19.0161 1.481C19.9661 2.43 20.4971 3.71 20.4971 5.05V12.95C20.4971 15.74 18.2271 18 15.4361 18H5.55707C2.76607 18 0.49707 15.74 0.49707 12.95V5.05C0.49707 2.26 2.75607 0 5.55707 0H15.4361ZM17.0271 6.54L17.1071 6.46C17.3461 6.17 17.3461 5.75 17.0961 5.46C16.9571 5.311 16.7661 5.22 16.5671 5.2C16.3571 5.189 16.1571 5.26 16.0061 5.4L11.4971 9C10.9171 9.481 10.0861 9.481 9.49707 9L4.99707 5.4C4.68607 5.17 4.25607 5.2 3.99707 5.47C3.72707 5.74 3.69707 6.17 3.92607 6.47L4.05707 6.6L8.60707 10.15C9.16707 10.59 9.84607 10.83 10.5571 10.83C11.2661 10.83 11.9571 10.59 12.5161 10.15L17.0271 6.54Z" fill="#1E272E"></path></svg>